<?xml version="1.0" encoding="utf-8"?>
<!-- Generator: Adobe Illustrator 24.2.3, SVG Export Plug-In . SVG Version: 6.00 Build 0)  -->
<svg version="1.1" xmlns="http://www.w3.org/2000/svg" xmlns:xlink="http://www.w3.org/1999/xlink" x="0px" y="0px"
	 viewBox="0 0 1000 1000" style="enable-background:new 0 0 1000 1000;" xml:space="preserve">
<style type="text/css">
	.st0{display:none;}
	.st1{display:inline;fill:#FFFF00;stroke:#FFEC00;stroke-miterlimit:10;}
	.st2{fill:#FFDD00;}
	.st3{fill:#1D1D1B;}
</style>
<g id="Layer_1" class="st0">
	<rect class="st1" width="1000" height="1000"/>
</g>
<g id="Layer_2">
	<g>
		<circle class="st2" cx="502" cy="500" r="481.63"/>
		<path class="st3" d="M649.56,761.57c-144.23,81.37-327.77,30.22-409.13-114.01c-5.61-9.94-2.1-22.54,7.84-28.15
			c9.94-5.61,22.54-2.1,28.15,7.84c70.17,124.38,228.45,168.49,352.83,98.32c124.38-70.17,168.49-228.45,98.32-352.83
			c-5.61-9.94-2.1-22.54,7.84-28.15s22.54-2.1,28.15,7.84C844.93,496.67,793.79,680.2,649.56,761.57z"/>
		<g>
			<path class="st3" d="M419.21,489.85l-23.85-24.41l-47.94,27.04l8.97,32.8l-35.54,20.05L279.14,378.2l55.38-31.24l121.48,122.14
				L419.21,489.85z M370.49,439.71l-43.45-44.67l-5.37,3.03l16.39,59.94L370.49,439.71z"/>
		</g>
		<g>
			<path class="st3" d="M543.23,419.89l-81.6-144.64l87.82-49.54l18.42,32.65l-53.31,30.07l17.72,31.41l49.8-28.09l17.72,31.41
				L550,351.24l27.74,49.18L543.23,419.89z"/>
		</g>
	</g>
	<g>
	</g>
	<g>
	</g>
	<g>
	</g>
	<g>
	</g>
	<g>
	</g>
	<g>
	</g>
</g>
</svg>
