<?xml version="1.0" encoding="utf-8"?>
<!-- Generator: Adobe Illustrator 24.2.3, SVG Export Plug-In . SVG Version: 6.00 Build 0)  -->
<svg version="1.1" id="Layer_1" xmlns="http://www.w3.org/2000/svg" xmlns:xlink="http://www.w3.org/1999/xlink" x="0px" y="0px"
	 viewBox="0 0 1000 1000" style="enable-background:new 0 0 1000 1000;" xml:space="preserve">
<style type="text/css">
	.st0{fill:#FFFF00;}
	.st1{fill:#1D1D1B;}
</style>
<g>
	<circle class="st0" cx="500.13" cy="500.5" r="484.87"/>
	<path class="st1" d="M648.68,763.83c-145.2,81.91-329.97,30.42-411.88-114.77c-5.65-10.01-2.11-22.69,7.9-28.34
		c10.01-5.65,22.69-2.11,28.34,7.9c70.64,125.22,229.98,169.62,355.2,98.98c125.22-70.64,169.62-229.98,98.98-355.2
		c-5.65-10.01-2.11-22.69,7.9-28.34c10.01-5.65,22.69-2.11,28.34,7.9C845.37,497.15,793.88,681.92,648.68,763.83z"/>
	<g>
		<path class="st1" d="M416.79,490.29l-24.01-24.57l-48.26,27.22l9.03,33.02l-35.78,20.18l-42-168.26l55.75-31.45L453.81,469.4
			L416.79,490.29z M367.74,439.8L324,394.83l-5.41,3.05l16.5,60.35L367.74,439.8z"/>
	</g>
	<g>
		<path class="st1" d="M541.65,419.85L459.5,274.24l88.41-49.87l18.54,32.87l-53.67,30.28l17.84,31.62l50.13-28.28l17.84,31.62
			l-50.13,28.28l27.93,49.51L541.65,419.85z"/>
	</g>
</g>
<g>
</g>
<g>
</g>
<g>
</g>
<g>
</g>
<g>
</g>
<g>
</g>
</svg>
